<?xml version="1.0" encoding="UTF-8"?><svg id="Layer_2" xmlns="http://www.w3.org/2000/svg" viewBox="0 0 529.67 149.27"><defs><style>.cls-1{fill:#b8965a;}</style></defs><g id="AA_Logo_1"><g id="inline_stacked"><path class="cls-1" d="M47.42,146.67c.1.78.11,1.63.01,2.47,0,.08-.07.13-.15.13H.21c-.08,0-.15-.07-.15-.15-.06-.85-.07-1.62-.05-2.46,0-.08.07-.15.16-.15,3.76.1,6.89-1.13,9.38-3.84,2.05-2.23,3.75-4.69,5.27-7.38,2.48-4.39,4.71-8.7,6.63-13.38l8.37-20.49,4.15-.02-4.64,14c-1.3,3.94-2.02,7.91-2.38,12.06-.65,7.53,1.42,14.66,9.02,17.48,3.61,1.34,7.1,1.67,11.29,1.59.08,0,.15.05.16.13Z"/><g id="Inside"><polygon class="cls-1" points="63.98 9.53 80.43 50.68 82.42 50.68 64.97 6.93 63.98 9.53"/><polygon class="cls-1" points="80.42 50.65 96.87 91.79 98.86 91.79 81.39 48.1 80.42 50.65"/><polygon class="cls-1" points="96.87 91.79 113.32 132.94 115.31 132.94 97.84 89.24 96.87 91.79"/><polygon class="cls-1" points="103.28 107.8 119.73 148.94 121.71 148.94 104.24 105.24 103.28 107.8"/><polygon class="cls-1" points="103.41 108.13 119.86 149.27 121.85 149.27 104.37 105.57 103.41 108.13"/><path class="cls-1" d="M139.91,146.71c0-.08-.06-.15-.15-.15-5.28-.21-8.49-1.58-11.49-6.01-2.15-3.18-3.93-6.5-5.39-10.17C105.53,86.75,87.99,43.39,69.82.11c-.83-.14-1.46-.14-2.26-.04l-2.72,7.2c-.02.06.02.07.31.83l56.44,141.16h18.28s.04-2.56.04-2.56Z"/><polygon class="cls-1" points="78.64 54.18 62.43 13.64 61.69 15.6 77.9 56.13 78.64 54.18"/><path class="cls-1" d="M91.27,89.57l3.08,7.71.74-1.97-.81-2.04c-.87-1.68-1.79-2.88-3.01-3.7Z"/><path class="cls-1" d="M78.38,57.34l11.02,27.56c.42-.97.51-2.12.17-3.4l-10.93-27.34h0s1.26,3.18,1.26,3.18h-1.52Z"/><polygon class="cls-1" points="78.38 57.34 79.9 57.34 78.64 54.18 77.9 56.13 78.38 57.34"/><polygon class="cls-1" points="94.58 97.86 98.45 107.54 99.2 105.57 112.56 139.01 112.57 139.01 95.09 95.31 95.09 95.31 96.11 97.86 94.58 97.86"/><polygon class="cls-1" points="94.58 97.86 96.11 97.86 95.09 95.31 94.35 97.28 94.58 97.86"/><polygon class="cls-1" points="115.14 149.27 116.67 149.27 112.56 139.01 111.03 139.01 115.14 149.27"/><polygon class="cls-1" points="98.45 107.54 111.03 139.01 112.56 139.01 99.2 105.57 98.45 107.54"/><path class="cls-1" d="M114.68,149.27l-16.45-41.14h0s-4.1-10.26-4.1-10.26h0l-3.46-8.66c-1.32-.7-2.97-1.05-5.23-1.13,1.62-.46,2.97-1.39,3.72-2.67l-11.22-28.07h0l-16.45-41.14.23-.6h0s-4.12,10.89-4.12,10.89l30.23,76.35,9.8,25c1.72,4.39,3.75,13.15-.25,16.79-1.64,1.49-3.58,1.79-5.88,1.94-.08,0-.14.07-.14.15l.05,2.42c0,.08.07.15.15.15h23.6s0,0,0,0h-.46Z"/><polygon class="cls-1" points="77.92 57.34 77.93 57.34 77.68 56.72 77.9 56.13 61.69 15.6 61.47 16.2 77.92 57.34"/><path class="cls-1" d="M78.38,57.34h-.46s11.22,28.07,11.22,28.07c.09-.16.18-.33.25-.5l-11.02-27.56Z"/><path class="cls-1" d="M94.35,97.28l-3.08-7.71c-.19-.13-.39-.25-.6-.36l3.46,8.66h0,0s.22-.58.22-.58Z"/><polygon class="cls-1" points="77.9 56.13 77.68 56.72 77.93 57.34 78.38 57.34 77.9 56.13"/><polygon class="cls-1" points="94.58 97.86 94.13 97.86 98.23 108.12 98.45 107.54 94.58 97.86"/><polygon class="cls-1" points="94.35 97.28 94.13 97.86 94.13 97.86 94.58 97.86 94.35 97.28"/><polygon class="cls-1" points="110.58 139.01 98.23 108.12 98.23 108.13 114.68 149.27 115.14 149.27 111.03 139.01 110.58 139.01"/><polygon class="cls-1" points="111.03 139.01 98.45 107.54 98.23 108.12 110.58 139.01 111.03 139.01"/></g><path class="cls-1" d="M149.01,73.9l20.39-44.43h3.59l20.43,44.43h-3.59l-5.84-12.74h-25.56l-5.8,12.74h-3.62ZM159.38,58.7h23.66l-11.85-25.82-11.81,25.82Z"/><path class="cls-1" d="M196.41,73.9l20.39-44.43h3.59l20.43,44.43h-3.59l-5.84-12.74h-25.56l-5.8,12.74h-3.62ZM206.78,58.7h23.66l-11.85-25.82-11.81,25.82Z"/><path class="cls-1" d="M250.24,73.9V29.47h14.45c9.28,0,15.05,3.79,15.05,11.57,0,4.77-3.16,8.12-8.19,9.54,5.87,1.36,9.6,5.94,9.6,11,0,7.9-5.77,12.32-15.26,12.32h-15.64ZM253.48,49.41h10.9c7.35,0,12.13-3.25,12.13-8.37,0-6.04-4.46-8.97-12.13-8.97h-10.9v17.35ZM253.48,71.28h12.09c7.7,0,12.3-3.67,12.3-9.76,0-5.09-4.99-9.58-12.66-9.58h-11.74v19.34Z"/><path class="cls-1" d="M290.33,51.69c0-13.59,10.48-23.23,24.93-23.23s24.93,9.64,24.93,23.23-10.48,23.23-24.93,23.23-24.93-9.64-24.93-23.23ZM336.84,51.69c0-12.01-9.04-20.51-21.59-20.51s-21.62,8.5-21.62,20.51,9.07,20.51,21.62,20.51,21.59-8.53,21.59-20.51Z"/><path class="cls-1" d="M172.01,138.9l20.39-44.43h3.59l20.43,44.43h-3.59l-5.84-12.74h-25.56l-5.8,12.74h-3.62ZM182.38,123.7h23.66l-11.85-25.82-11.81,25.82Z"/><path class="cls-1" d="M225.84,138.9v-44.43h17.05c14.48,0,24.54,9.07,24.54,22.12s-10.05,22.31-24.54,22.31h-17.05ZM229.11,136.28h13.61c12.59,0,21.41-8.15,21.41-19.69s-8.82-19.53-21.41-19.53h-13.61v39.22Z"/><path class="cls-1" d="M293.77,138.9l-20.43-44.43h3.62l18.6,40.95,18.6-40.95h3.62l-20.43,44.43h-3.59Z"/><path class="cls-1" d="M328.56,138.9v-44.43h3.27v44.43h-3.27Z"/><path class="cls-1" d="M348.94,128.28l2.99-.54c1.16,5.91,6.19,9.26,12.62,9.26,7.38,0,11.5-4.2,11.5-9.23,0-3.76-1.83-6.7-7.14-9.01l-9.07-4.04c-5.48-2.4-8.96-5.09-8.96-10.37s4.92-10.52,13.46-10.52c7.52,0,12.62,4.14,13.5,9.99l-2.95.54c-.77-4.58-4.64-8-10.55-8-6.5,0-10.2,3.76-10.2,7.93,0,3.57,2.18,5.66,7.03,7.84l8.86,3.95c6.15,2.75,9.28,5.91,9.28,11.66,0,6.73-5.48,11.79-14.77,11.79s-14.13-4.42-15.61-11.25Z"/><path class="cls-1" d="M390.19,116.69c0-13.59,10.48-23.23,24.93-23.23s24.93,9.64,24.93,23.23-10.48,23.23-24.93,23.23-24.93-9.64-24.93-23.23ZM436.7,116.69c0-12.01-9.04-20.51-21.59-20.51s-21.62,8.5-21.62,20.51,9.07,20.51,21.62,20.51,21.59-8.53,21.59-20.51Z"/><path class="cls-1" d="M452.81,138.9v-44.43h14.13c9.46,0,15.33,3.6,15.33,12.04,0,7.36-5.59,10.9-11.92,11.82l19.3,20.57h-4.22l-18.81-20.19h-10.55v20.19h-3.27ZM456.08,116.12h10.83c6.64,0,12.13-3,12.13-9.61s-4.46-9.42-12.13-9.42h-10.83v19.02Z"/><path class="cls-1" d="M508.68,138.9v-18.83l-17.68-25.6h3.9l15.4,22.75,15.43-22.75h3.94l-17.72,25.6v18.83h-3.27Z"/></g></g></svg>