<?xml version="1.0" encoding="UTF-8"?><svg id="Layer_2" xmlns="http://www.w3.org/2000/svg" viewBox="0 0 528.17 150.43"><defs><style>.cls-1{fill:#b8965a;}</style></defs><g id="AA_Logo_1"><g id="Stacked"><path class="cls-1" d="M47.42,146.67c.1.78.11,1.64.01,2.47,0,.08-.07.13-.15.13H.21c-.08,0-.15-.07-.15-.14-.06-.85-.07-1.63-.05-2.47,0-.08.07-.15.15-.15,3.77.1,6.89-1.13,9.39-3.84,2.05-2.23,3.75-4.69,5.27-7.38,2.48-4.39,4.71-8.7,6.63-13.38l8.37-20.49,4.15-.02-4.64,14c-1.3,3.94-2.02,7.91-2.38,12.06-.65,7.53,1.42,14.66,9.02,17.48,3.61,1.34,7.1,1.67,11.29,1.59.08,0,.14.05.15.13Z"/><path class="cls-1" d="M115.06,149.07l-22.6-56.52s0,0,0,0c0,0-.3-.75-.3-.75-1.77-2.85-4.55-3.95-8.28-3.74,2.98-.65,5.14-3.72,4.38-6.02,0,0,0,0,0,0L61.83,15.96c-.05-.13-.23-.13-.28,0l-3.98,10.53,30.23,76.35,9.8,25c1.72,4.39,3.75,13.15-.25,16.79-1.64,1.49-3.58,1.79-5.88,1.94-.08,0-.14.07-.14.15l.05,2.42c0,.08.07.15.15.15h23.38c.11,0,.18-.11.14-.21Z"/><path class="cls-1" d="M139.91,146.71c0-.08-.06-.15-.14-.15-5.28-.21-8.49-1.58-11.49-6.01-2.15-3.18-3.93-6.5-5.39-10.17C105.53,86.75,87.99,43.39,69.82.11c-.83-.14-1.46-.14-2.26-.04l-2.71,7.17s-.01.07.3.86l56.7,141.82c-.28-.7-.22-.66-.16-.66h18.18s.04-2.56.04-2.56Z"/><path class="cls-1" d="M146.51,85.42l20.39-44.43h3.59l20.43,44.43h-3.59l-5.84-12.74h-25.56l-5.8,12.74h-3.62ZM156.88,70.22h23.66l-11.85-25.82-11.81,25.82Z"/><path class="cls-1" d="M193.91,85.42l20.39-44.43h3.59l20.43,44.43h-3.59l-5.84-12.74h-25.56l-5.8,12.74h-3.62ZM204.28,70.22h23.66l-11.85-25.82-11.81,25.82Z"/><path class="cls-1" d="M247.74,85.42v-44.43h14.45c9.28,0,15.05,3.79,15.05,11.57,0,4.77-3.16,8.12-8.19,9.54,5.87,1.36,9.6,5.94,9.6,11,0,7.9-5.77,12.32-15.26,12.32h-15.64ZM250.97,60.93h10.9c7.35,0,12.13-3.25,12.13-8.37,0-6.04-4.46-8.97-12.13-8.97h-10.9v17.35ZM250.97,82.8h12.09c7.7,0,12.3-3.67,12.3-9.76,0-5.09-4.99-9.58-12.66-9.58h-11.74v19.34Z"/><path class="cls-1" d="M287.82,63.21c0-13.59,10.48-23.23,24.93-23.23s24.93,9.64,24.93,23.23-10.48,23.23-24.93,23.23-24.93-9.64-24.93-23.23ZM334.34,63.21c0-12.01-9.04-20.51-21.59-20.51s-21.62,8.5-21.62,20.51,9.07,20.51,21.62,20.51,21.59-8.53,21.59-20.51Z"/><path class="cls-1" d="M170.51,149.42l20.39-44.43h3.59l20.43,44.43h-3.59l-5.84-12.74h-25.56l-5.8,12.74h-3.62ZM180.88,134.22h23.66l-11.85-25.82-11.81,25.82Z"/><path class="cls-1" d="M224.34,149.42v-44.43h17.05c14.48,0,24.54,9.07,24.54,22.12s-10.05,22.31-24.54,22.31h-17.05ZM227.61,146.8h13.61c12.59,0,21.41-8.15,21.41-19.69s-8.82-19.53-21.41-19.53h-13.61v39.22Z"/><path class="cls-1" d="M292.27,149.42l-20.43-44.43h3.62l18.6,40.95,18.6-40.95h3.62l-20.43,44.43h-3.59Z"/><path class="cls-1" d="M327.05,149.42v-44.43h3.27v44.43h-3.27Z"/><path class="cls-1" d="M347.44,138.8l2.99-.54c1.16,5.91,6.19,9.26,12.62,9.26,7.38,0,11.5-4.2,11.5-9.23,0-3.76-1.83-6.7-7.14-9.01l-9.07-4.04c-5.48-2.4-8.96-5.09-8.96-10.37s4.92-10.52,13.46-10.52c7.52,0,12.62,4.14,13.5,9.99l-2.95.54c-.77-4.58-4.64-8-10.55-8-6.5,0-10.2,3.76-10.2,7.93,0,3.57,2.18,5.66,7.03,7.84l8.86,3.95c6.15,2.75,9.28,5.91,9.28,11.66,0,6.73-5.48,11.79-14.77,11.79s-14.13-4.42-15.61-11.25Z"/><path class="cls-1" d="M388.69,127.21c0-13.59,10.48-23.23,24.93-23.23s24.93,9.64,24.93,23.23-10.48,23.23-24.93,23.23-24.93-9.64-24.93-23.23ZM435.2,127.21c0-12.01-9.04-20.51-21.59-20.51s-21.62,8.5-21.62,20.51,9.07,20.51,21.62,20.51,21.59-8.53,21.59-20.51Z"/><path class="cls-1" d="M451.31,149.42v-44.43h14.13c9.46,0,15.33,3.6,15.33,12.04,0,7.36-5.59,10.9-11.92,11.82l19.3,20.57h-4.22l-18.81-20.19h-10.55v20.19h-3.27ZM454.58,126.64h10.83c6.64,0,12.13-3,12.13-9.61s-4.46-9.42-12.13-9.42h-10.83v19.02Z"/><path class="cls-1" d="M507.18,149.42v-18.83l-17.68-25.6h3.9l15.4,22.75,15.43-22.75h3.94l-17.72,25.6v18.83h-3.27Z"/></g></g></svg>